<?xml version="1.0" encoding="utf-8"?>
<!-- Generator: Adobe Illustrator 24.0.1, SVG Export Plug-In . SVG Version: 6.00 Build 0)  -->
<svg version="1.1" id="bb5d7bf9-f1d1-4967-8b85-2debba85734f"
	 xmlns="http://www.w3.org/2000/svg" xmlns:xlink="http://www.w3.org/1999/xlink" x="0px" y="0px" viewBox="0 0 826.3 603.5"
	 style="enable-background:new 0 0 826.3 603.5;" xml:space="preserve">
<style type="text/css">
	.st0{fill:#F2F23D;}
	.st1{fill:none;stroke:#3F3D56;stroke-miterlimit:10;}
	.st2{fill:#F2F2F2;}
	.st3{fill:#FF6584;}
	.st4{fill:#FBBEBE;}
	.st5{fill:#3F3D56;}
	.st6{opacity:0.1;enable-background:new    ;}
</style>
<title>gift card</title>
<path class="st0" d="M348.5,42.5h169.2c3,0,5.4,2.4,5.4,5.4v13.2c0,3-2.4,5.4-5.4,5.4H348.5c-3,0-5.4-2.4-5.4-5.4V47.9
	C343.1,44.9,345.5,42.5,348.5,42.5z"/>
<path class="st1" d="M326.5,0.5h451.2c3,0,5.4,2.4,5.4,5.4v520.2c0,3-2.4,5.4-5.4,5.4H326.5c-3,0-5.4-2.4-5.4-5.4V5.9
	C321.1,2.9,323.5,0.5,326.5,0.5z"/>
<path class="st1" d="M353.5,35.5h169.2c3,0,5.4,2.4,5.4,5.4v13.2c0,3-2.4,5.4-5.4,5.4H353.5c-3,0-5.4-2.4-5.4-5.4V40.9
	C348.1,37.9,350.5,35.5,353.5,35.5z"/>
<path class="st2" d="M372,123.5h350.2c3,0,5.4,2.4,5.4,5.4v1.2c0,3-2.4,5.4-5.4,5.4H372c-3,0-5.4-2.4-5.4-5.4v-1.2
	C366.6,125.9,369,123.5,372,123.5z"/>
<path class="st2" d="M372.5,161.5h350.2c3,0,5.4,2.4,5.4,5.4v1.2c0,3-2.4,5.4-5.4,5.4H372.5c-3,0-5.4-2.4-5.4-5.4v-1.2
	C367.1,163.9,369.5,161.5,372.5,161.5z"/>
<path class="st2" d="M373,199.5h350.2c3,0,5.4,2.4,5.4,5.4v1.2c0,3-2.4,5.4-5.4,5.4H373c-3,0-5.4-2.4-5.4-5.4v-1.2
	C367.6,201.9,370,199.5,373,199.5z"/>
<path class="st1" d="M377,118.5h350.2c3,0,5.4,2.4,5.4,5.4v1.2c0,3-2.4,5.4-5.4,5.4H377c-3,0-5.4-2.4-5.4-5.4v-1.2
	C371.6,120.9,374,118.5,377,118.5z"/>
<path class="st1" d="M377.5,156.5h350.2c3,0,5.4,2.4,5.4,5.4v1.2c0,3-2.4,5.4-5.4,5.4H377.5c-3,0-5.4-2.4-5.4-5.4v-1.2
	C372.1,158.9,374.5,156.5,377.5,156.5z"/>
<path class="st1" d="M378,194.5h350.2c3,0,5.4,2.4,5.4,5.4v1.2c0,3-2.4,5.4-5.4,5.4H378c-3,0-5.4-2.4-5.4-5.4v-1.2
	C372.6,196.9,375,194.5,378,194.5z"/>
<path class="st2" d="M609.7,308.5H487.4c-2.7,0-4.9,2.2-4.9,4.9c0,0,0,0,0,0v16.3c0,2.7,2.2,4.9,4.9,4.9l0,0h6.6v82.6
	c0,2.7,2.2,4.9,4.9,4.9l0,0h92.3c2.7,0,4.9-2.2,4.9-4.9l0,0v-82.6h13.6c2.7,0,4.9-2.2,4.9-4.9l0,0v-16.3
	C614.6,310.7,612.4,308.5,609.7,308.5L609.7,308.5z"/>
<path class="st1" d="M504.1,329.5h102l0,0v79.1c0,5.2-4.2,9.4-9.4,9.4l0,0h-83.1c-5.2,0-9.4-4.2-9.4-9.4l0,0L504.1,329.5
	L504.1,329.5z"/>
<path class="st1" d="M497.2,303.5h116.6c4.2,0,7.7,3.4,7.7,7.7v10.6c0,4.2-3.4,7.7-7.7,7.7H497.2c-4.2,0-7.7-3.4-7.7-7.7v-10.6
	C489.6,306.9,493,303.5,497.2,303.5z"/>
<rect x="537.1" y="307" class="st0" width="24.5" height="111"/>
<rect x="545.6" y="303.5" class="st1" width="20" height="114"/>
<path class="st0" d="M546.4,277.7c6.8,11.7,5,25.4,5,25.4s-12.9-5.2-19.7-16.9s-9.1-23.1-5-25.4S539.6,266,546.4,277.7z"/>
<path class="st0" d="M562.4,277.7c-6.8,11.7-5,25.4-5,25.4s12.9-5.2,19.7-16.9s9.1-23.1,5-25.4S569.2,266,562.4,277.7z"/>
<path class="st1" d="M549.4,277.7c6.8,11.7,5,25.4,5,25.4s-12.9-5.2-19.7-16.9s-9.1-23.1-5-25.4S542.6,266,549.4,277.7z"/>
<path class="st1" d="M559.4,277.7c-6.8,11.7-5,25.4-5,25.4s12.9-5.2,19.7-16.9s9.1-23.1,5-25.4S566.2,266,559.4,277.7z"/>
<path class="st3" d="M154.2,69.6c0,0,20.2,38,17,58.2s-6.5,38,0,47.7s-34.8-1.6-34.8-1.6v-56.6L154.2,69.6z"/>
<path class="st4" d="M197.4,171.9c0,0-48.9,54.6-64.3,40.8s-29.5-46.5-18.2-57c6.1-5.7,6.6-16.5,5.7-25.3c-0.5-4.6-1.3-9.1-2.5-13.5
	c0,0,24.3-7.3,25.1,7.3c0.1,1.7,0.5,3.4,1.3,4.9c4.6,8.2,19.7,4,19.7,4L197.4,171.9z"/>
<path class="st4" d="M161.1,135.5l3.2-2.4c12.9-0.7,25.8,1.3,38,5.7c19.4,7.3,53.4,13.7,63.1,11.3c9.7-2.4,33.1-7.3,33.1-7.3
	s25.9-10.5,31.5,2.4c5.7,12.9-34.8,12.9-34.8,12.9s-28.7,11.7-48.9,10.1s-46.5,7.7-58.6-2S161.1,135.5,161.1,135.5z"/>
<path class="st4" d="M64.9,444.3H43l-8.1,16.2l10.5,11.3c0,0,20.2-2.4,25.9-8.9C77,456.4,64.9,444.3,64.9,444.3z"/>
<path class="st5" d="M61.5,444.3c0,0,9-4,3.3-8.9s-10.5-11.3-19.4-4.9S-7.1,470.2,1,481.5s10.5,8.9,14.6,6.5s17-12.1,27.5-12.1
	s6.5-13.7,2.4-17.8S58.2,444.3,61.5,444.3z"/>
<path class="st4" d="M145.7,547.8l-8.9,15.4l8.9,9.7h25.1c0,0-8.1-16.2-4.9-23.4S145.7,547.8,145.7,547.8z"/>
<path class="st5" d="M170.8,559.1c0,0-8.9,9.7-14.6,8.1s-15.5-10.8-15.5-10.8s-14.4,14-7.9,20.5s32.3,18.6,39.6,23.4
	s31.5,1.6,30.7-4s-12.9-12.1-18.6-19.4S170.8,559.1,170.8,559.1z"/>
<path class="st5" d="M213.6,293.9c0,0,17.8,55.8-6.5,121.3c0,0-21.8,96.2-29.9,115.6s-8.1,27.5-8.1,27.5s-30.7,0.8-28.3-5.7
	c0,0,10.5-31.5,10.5-43.7s17-77.6,17-77.6l5.7-139.9L213.6,293.9z"/>
<path class="st6" d="M213.6,293.9c0,0,17.8,55.8-6.5,121.3c0,0-21.8,96.2-29.9,115.6s-8.1,27.5-8.1,27.5s-30.7,0.8-28.3-5.7
	c0,0,10.5-31.5,10.5-43.7s17-77.6,17-77.6l5.7-139.9L213.6,293.9z"/>
<path class="st5" d="M209.6,298c0,0,0,25.9-17,37.2c0,0,12.9,90.5-3.2,107.5s-42.8,9.7-42.8,9.7s-44.5,2.4-77.6,15.4
	c0,0-25.9-7.3-4.9-25.9c0,0,25.9-6.5,34-12.1s45.3-17,55-12.1c0,0-0.8-13.7-4-23.4c-2.9-8.7-8.1-35.6-8.1-35.6s-22.6-42.8,0-65.5
	S209.6,298,209.6,298z"/>
<path class="st6" d="M144.6,129c-7.4,3.7-16.1,4.2-23.9,1.3c-0.5-4.6-1.3-9.1-2.5-13.5c0,0,24.3-7.3,25.1,7.3
	C143.3,125.9,143.8,127.5,144.6,129z"/>
<circle class="st4" cx="131.1" cy="99.9" r="29.9"/>
<path class="st0" d="M129.5,211.5c0,0,34,24.3,18.6,50.1S137.6,302,137.6,302s29.1,0,38.8,6.5s40.4-4.9,40.4-4.9s4.9-32.3-1.6-47.7
	s-9.7-39.6-7.3-44.5s8.9-27.5-6.5-40.4l-8.7-4.7c0,0,5.5,23.3-31.7,8.7C161.1,175.1,153,222.8,129.5,211.5z"/>
<polygon class="st0" points="161.5,133.6 162.3,134.5 193,166.6 193.9,167.6 194,167.8 194.6,169.7 195.8,173.6 191,168.2 
	161.3,135.3 159.9,133.9 "/>
<path class="st0" d="M163.6,177.5c0,0-25.2-21.9-43-16.2s8.6,53.8,14,54.4l2.2-0.2c0,0-33.1-40.4-14.6-52.5c0,0,23.4,2.4,41.2,17
	L163.6,177.5z"/>
<path class="st4" d="M148.1,172.7l59,18.6l97.8,5.7c0,0,28.3,0.8,23.4,13.7s-30.7,3.2-30.7,3.2l-84.1,1.6c0,0-69.5-7.3-75.2-11.3
	S141.7,170.2,148.1,172.7z"/>
<path class="st3" d="M122.3,125c0,0-3.2-6.5,3.2-13.7c3.3-3.7,6.2-11.6,8.2-18.5c1.9-6.5,8.4-10.6,15.1-9.5
	c5.8,0.9,11.9,1.2,13.8-1.1c4-4.9-0.8-30.7-32.3-25.1s-51.7-7.3-51.7,23.4s19.4,39.6,5.7,70.3s-40.4,34-25.1,54.2
	s55.8,25.9,58.2,18.6s-9.7-35.6-1.6-46.9s21.8-23.4,17.8-30.7S122.3,125,122.3,125z"/>
<line class="st1" x1="26.6" y1="603" x2="342.6" y2="603"/>
</svg>
